{
	"asset":{
		"generator":"Khronos glTF Blender I/O v4.2.57",
		"version":"2.0"
	},
	"extensionsUsed":[
		"KHR_materials_transmission",
		"KHR_materials_specular",
		"KHR_materials_ior",
		"KHR_texture_transform"
	],
	"extensionsRequired":[
		"KHR_texture_transform"
	],
	"scene":0,
	"scenes":[
		{
			"name":"Scene",
			"nodes":[
				0,
				1,
				2,
				3,
				4,
				5,
				6,
				7
			]
		}
	],
	"nodes":[
		{
			"mesh":0,
			"name":"T-Brujula"
		},
		{
			"mesh":1,
			"name":"Tapa"
		},
		{
			"mesh":2,
			"name":"Tuerca"
		},
		{
			"mesh":3,
			"name":"Mango"
		},
		{
			"mesh":4,
			"name":"Defensa"
		},
		{
			"mesh":5,
			"name":"Brujula"
		},
		{
			"mesh":6,
			"name":"Hoja "
		},
		{
			"mesh":7,
			"name":"Guardamano"
		}
	],
	"materials":[
		{
			"doubleSided":true,
			"extensions":{
				"KHR_materials_transmission":{
					"transmissionFactor":1
				},
				"KHR_materials_ior":{
					"ior":71.5999984741211
				}
			},
			"name":"Tapa de brujula",
			"normalTexture":{
				"index":0
			},
			"pbrMetallicRoughness":{
				"metallicFactor":0,
				"roughnessFactor":0.11818181723356247
			}
		},
		{
			"doubleSided":true,
			"extensions":{
				"KHR_materials_specular":{
					"specularColorFactor":[
						1.1454545259475708,
						1.1454545259475708,
						1.1454545259475708
					]
				},
				"KHR_materials_ior":{
					"ior":1
				}
			},
			"name":"Metal 2",
			"normalTexture":{
				"index":1
			},
			"pbrMetallicRoughness":{
				"baseColorTexture":{
					"index":2
				},
				"metallicFactor":0.968181848526001,
				"metallicRoughnessTexture":{
					"extensions":{
						"KHR_texture_transform":{
							"offset":[
								0.09999999403953552,
								-0.8000000417232513
							],
							"scale":[
								1.499999761581421,
								1.5000001192092896
							]
						}
					},
					"index":3
				}
			}
		},
		{
			"doubleSided":true,
			"name":"Brujula",
			"pbrMetallicRoughness":{
				"baseColorTexture":{
					"index":4
				},
				"metallicFactor":0,
				"roughnessFactor":0.4727272689342499
			}
		},
		{
			"doubleSided":true,
			"name":"Metal",
			"normalTexture":{
				"index":5
			},
			"pbrMetallicRoughness":{
				"baseColorTexture":{
					"index":6
				},
				"metallicRoughnessTexture":{
					"extensions":{
						"KHR_texture_transform":{
							"offset":[
								0.19999998807907104,
								-1.000000149011612
							],
							"scale":[
								1.7000001668930054,
								1.7000001668930054
							]
						}
					},
					"index":7
				}
			}
		}
	],
	"meshes":[
		{
			"name":"Cylinder.004",
			"primitives":[
				{
					"attributes":{
						"POSITION":0,
						"NORMAL":1,
						"TEXCOORD_0":2
					},
					"indices":3,
					"material":0
				}
			]
		},
		{
			"name":"Cylinder.005",
			"primitives":[
				{
					"attributes":{
						"POSITION":4,
						"NORMAL":5,
						"TEXCOORD_0":6
					},
					"indices":7,
					"material":1
				}
			]
		},
		{
			"name":"Cylinder.006",
			"primitives":[
				{
					"attributes":{
						"POSITION":8,
						"NORMAL":9,
						"TEXCOORD_0":10
					},
					"indices":11,
					"material":1
				}
			]
		},
		{
			"name":"Cube.006",
			"primitives":[
				{
					"attributes":{
						"POSITION":12,
						"NORMAL":13,
						"TEXCOORD_0":14
					},
					"indices":15,
					"material":1
				}
			]
		},
		{
			"name":"Cube.008",
			"primitives":[
				{
					"attributes":{
						"POSITION":16,
						"NORMAL":17,
						"TEXCOORD_0":18
					},
					"indices":19,
					"material":1
				}
			]
		},
		{
			"name":"Cylinder.003",
			"primitives":[
				{
					"attributes":{
						"POSITION":20,
						"NORMAL":21,
						"TEXCOORD_0":22
					},
					"indices":23,
					"material":2
				}
			]
		},
		{
			"name":"Cube.010",
			"primitives":[
				{
					"attributes":{
						"POSITION":24,
						"NORMAL":25,
						"TEXCOORD_0":26
					},
					"indices":27,
					"material":3
				}
			]
		},
		{
			"name":"Cube.007",
			"primitives":[
				{
					"attributes":{
						"POSITION":28,
						"NORMAL":29,
						"TEXCOORD_0":30
					},
					"indices":31,
					"material":1
				}
			]
		}
	],
	"textures":[
		{
			"sampler":0,
			"source":0
		},
		{
			"sampler":0,
			"source":0
		},
		{
			"sampler":0,
			"source":1
		},
		{
			"sampler":0,
			"source":2
		},
		{
			"sampler":0,
			"source":3
		},
		{
			"sampler":0,
			"source":0
		},
		{
			"sampler":0,
			"source":4
		},
		{
			"sampler":0,
			"source":2
		}
	],
	"images":[
		{
			"mimeType":"image/jpeg",
			"name":"Nomal map",
			"uri":"Nomal%20map.jpg"
		},
		{
			"mimeType":"image/jpeg",
			"name":"Metal2Prueba",
			"uri":"Metal2Prueba.jpg"
		},
		{
			"mimeType":"image/jpeg",
			"name":"MetalPrueba4",
			"uri":"MetalPrueba4.jpg"
		},
		{
			"mimeType":"image/jpeg",
			"name":"brujula.webp",
			"uri":"brujula_webp.jpg"
		},
		{
			"mimeType":"image/jpeg",
			"name":"Metal",
			"uri":"Metal.jpg"
		}
	],
	"accessors":[
		{
			"bufferView":0,
			"componentType":5126,
			"count":136,
			"max":[
				0.15130721032619476,
				0.15556451678276062,
				2.6530239582061768
			],
			"min":[
				-0.1521780788898468,
				-0.14792077243328094,
				2.5378103256225586
			],
			"type":"VEC3"
		},
		{
			"bufferView":1,
			"componentType":5126,
			"count":136,
			"type":"VEC3"
		},
		{
			"bufferView":2,
			"componentType":5126,
			"count":136,
			"type":"VEC2"
		},
		{
			"bufferView":3,
			"componentType":5123,
			"count":576,
			"type":"SCALAR"
		},
		{
			"bufferView":4,
			"componentType":5126,
			"count":363,
			"max":[
				0.2235494703054428,
				0.2278326153755188,
				2.6065971851348877
			],
			"min":[
				-0.22439725697040558,
				-0.2201320230960846,
				2.520615577697754
			],
			"type":"VEC3"
		},
		{
			"bufferView":5,
			"componentType":5126,
			"count":363,
			"type":"VEC3"
		},
		{
			"bufferView":6,
			"componentType":5126,
			"count":363,
			"type":"VEC2"
		},
		{
			"bufferView":7,
			"componentType":5123,
			"count":1152,
			"type":"SCALAR"
		},
		{
			"bufferView":8,
			"componentType":5126,
			"count":54,
			"max":[
				0.2624766230583191,
				0.26418814063072205,
				2.5280869007110596
			],
			"min":[
				-0.2631363868713379,
				-0.2617925703525543,
				2.4607458114624023
			],
			"type":"VEC3"
		},
		{
			"bufferView":9,
			"componentType":5126,
			"count":54,
			"type":"VEC3"
		},
		{
			"bufferView":10,
			"componentType":5126,
			"count":54,
			"type":"VEC2"
		},
		{
			"bufferView":11,
			"componentType":5123,
			"count":180,
			"type":"SCALAR"
		},
		{
			"bufferView":12,
			"componentType":5126,
			"count":388,
			"max":[
				0.2378844916820526,
				0.2371591180562973,
				2.4619431495666504
			],
			"min":[
				-0.2378845065832138,
				-0.2367413341999054,
				1.0146127939224243
			],
			"type":"VEC3"
		},
		{
			"bufferView":13,
			"componentType":5126,
			"count":388,
			"type":"VEC3"
		},
		{
			"bufferView":14,
			"componentType":5126,
			"count":388,
			"type":"VEC2"
		},
		{
			"bufferView":15,
			"componentType":5123,
			"count":2016,
			"type":"SCALAR"
		},
		{
			"bufferView":16,
			"componentType":5126,
			"count":220,
			"max":[
				0.08981278538703918,
				0.31592857837677,
				0.8855929374694824
			],
			"min":[
				-0.08981278538703918,
				-0.2991430163383484,
				0.6727436780929565
			],
			"type":"VEC3"
		},
		{
			"bufferView":17,
			"componentType":5126,
			"count":220,
			"type":"VEC3"
		},
		{
			"bufferView":18,
			"componentType":5126,
			"count":220,
			"type":"VEC2"
		},
		{
			"bufferView":19,
			"componentType":5123,
			"count":936,
			"type":"SCALAR"
		},
		{
			"bufferView":20,
			"componentType":5126,
			"count":61,
			"max":[
				0.14793004095554352,
				0.15183037519454956,
				2.5874083042144775
			],
			"min":[
				-0.1463029682636261,
				-0.1424027383327484,
				2.5874083042144775
			],
			"type":"VEC3"
		},
		{
			"bufferView":21,
			"componentType":5126,
			"count":61,
			"type":"VEC3"
		},
		{
			"bufferView":22,
			"componentType":5126,
			"count":61,
			"type":"VEC2"
		},
		{
			"bufferView":23,
			"componentType":5123,
			"count":288,
			"type":"SCALAR"
		},
		{
			"bufferView":24,
			"componentType":5126,
			"count":1446,
			"max":[
				0.04011905938386917,
				0.27353405952453613,
				0.7283029556274414
			],
			"min":[
				-0.04011877253651619,
				-0.25754350423812866,
				-2.7755126953125
			],
			"type":"VEC3"
		},
		{
			"bufferView":25,
			"componentType":5126,
			"count":1446,
			"type":"VEC3"
		},
		{
			"bufferView":26,
			"componentType":5126,
			"count":1446,
			"type":"VEC2"
		},
		{
			"bufferView":27,
			"componentType":5123,
			"count":7104,
			"type":"SCALAR"
		},
		{
			"bufferView":28,
			"componentType":5126,
			"count":697,
			"max":[
				0.24328996241092682,
				0.4923882484436035,
				1.030010461807251
			],
			"min":[
				-0.24328996241092682,
				-0.4923882484436035,
				0.8797497749328613
			],
			"type":"VEC3"
		},
		{
			"bufferView":29,
			"componentType":5126,
			"count":697,
			"type":"VEC3"
		},
		{
			"bufferView":30,
			"componentType":5126,
			"count":697,
			"type":"VEC2"
		},
		{
			"bufferView":31,
			"componentType":5123,
			"count":3168,
			"type":"SCALAR"
		}
	],
	"bufferViews":[
		{
			"buffer":0,
			"byteLength":1632,
			"byteOffset":0,
			"target":34962
		},
		{
			"buffer":0,
			"byteLength":1632,
			"byteOffset":1632,
			"target":34962
		},
		{
			"buffer":0,
			"byteLength":1088,
			"byteOffset":3264,
			"target":34962
		},
		{
			"buffer":0,
			"byteLength":1152,
			"byteOffset":4352,
			"target":34963
		},
		{
			"buffer":0,
			"byteLength":4356,
			"byteOffset":5504,
			"target":34962
		},
		{
			"buffer":0,
			"byteLength":4356,
			"byteOffset":9860,
			"target":34962
		},
		{
			"buffer":0,
			"byteLength":2904,
			"byteOffset":14216,
			"target":34962
		},
		{
			"buffer":0,
			"byteLength":2304,
			"byteOffset":17120,
			"target":34963
		},
		{
			"buffer":0,
			"byteLength":648,
			"byteOffset":19424,
			"target":34962
		},
		{
			"buffer":0,
			"byteLength":648,
			"byteOffset":20072,
			"target":34962
		},
		{
			"buffer":0,
			"byteLength":432,
			"byteOffset":20720,
			"target":34962
		},
		{
			"buffer":0,
			"byteLength":360,
			"byteOffset":21152,
			"target":34963
		},
		{
			"buffer":0,
			"byteLength":4656,
			"byteOffset":21512,
			"target":34962
		},
		{
			"buffer":0,
			"byteLength":4656,
			"byteOffset":26168,
			"target":34962
		},
		{
			"buffer":0,
			"byteLength":3104,
			"byteOffset":30824,
			"target":34962
		},
		{
			"buffer":0,
			"byteLength":4032,
			"byteOffset":33928,
			"target":34963
		},
		{
			"buffer":0,
			"byteLength":2640,
			"byteOffset":37960,
			"target":34962
		},
		{
			"buffer":0,
			"byteLength":2640,
			"byteOffset":40600,
			"target":34962
		},
		{
			"buffer":0,
			"byteLength":1760,
			"byteOffset":43240,
			"target":34962
		},
		{
			"buffer":0,
			"byteLength":1872,
			"byteOffset":45000,
			"target":34963
		},
		{
			"buffer":0,
			"byteLength":732,
			"byteOffset":46872,
			"target":34962
		},
		{
			"buffer":0,
			"byteLength":732,
			"byteOffset":47604,
			"target":34962
		},
		{
			"buffer":0,
			"byteLength":488,
			"byteOffset":48336,
			"target":34962
		},
		{
			"buffer":0,
			"byteLength":576,
			"byteOffset":48824,
			"target":34963
		},
		{
			"buffer":0,
			"byteLength":17352,
			"byteOffset":49400,
			"target":34962
		},
		{
			"buffer":0,
			"byteLength":17352,
			"byteOffset":66752,
			"target":34962
		},
		{
			"buffer":0,
			"byteLength":11568,
			"byteOffset":84104,
			"target":34962
		},
		{
			"buffer":0,
			"byteLength":14208,
			"byteOffset":95672,
			"target":34963
		},
		{
			"buffer":0,
			"byteLength":8364,
			"byteOffset":109880,
			"target":34962
		},
		{
			"buffer":0,
			"byteLength":8364,
			"byteOffset":118244,
			"target":34962
		},
		{
			"buffer":0,
			"byteLength":5576,
			"byteOffset":126608,
			"target":34962
		},
		{
			"buffer":0,
			"byteLength":6336,
			"byteOffset":132184,
			"target":34963
		}
	],
	"samplers":[
		{
			"magFilter":9729,
			"minFilter":9987
		}
	],
	"buffers":[
		{
			"byteLength":138520,
			"uri":"Cuchillo.bin"
		}
	]
}
